<svg viewBox="0 0 992.7333374023438 400" xmlns="http://www.w3.org/2000/svg"><g><g><g><g><g><line x1="29.992000579833984" y1="311.1221385556167" x2="24.992000579833984" y2="311.1221385556167" style="visibility: inherit;" fill="rgb(0, 0, 0)" stroke="rgb(204, 204, 204)" stroke-width="1px"></line><line x1="29.992000579833984" y1="199.43327087747872" x2="24.992000579833984" y2="199.43327087747872" style="visibility: inherit;" fill="rgb(0, 0, 0)" stroke="rgb(204, 204, 204)" stroke-width="1px"></line><line x1="29.992000579833984" y1="112.80065465791955" x2="24.992000579833984" y2="112.80065465791955" style="visibility: inherit;" fill="rgb(0, 0, 0)" stroke="rgb(204, 204, 204)" stroke-width="1px"></line><line x1="29.992000579833984" y1="42.01665321464145" x2="24.992000579833984" y2="42.01665321464145" style="visibility: inherit;" fill="rgb(0, 0, 0)" stroke="rgb(204, 204, 204)" stroke-width="1px"></line></g><g transform="translate(19.992000579833984, 0)"><text style="text-anchor: end; visibility: inherit; font-family: &quot;Helvetica Neue&quot;, sans-serif; font-size: 12px; font-weight: 200;" x="0" y="311.1221385556167" dx="0em" dy="0.3em" fill="rgb(50, 49, 63)" stroke="none" stroke-width="1px">30</text><text style="text-anchor: end; visibility: inherit; font-family: &quot;Helvetica Neue&quot;, sans-serif; font-size: 12px; font-weight: 200;" x="0" y="199.43327087747872" dx="0em" dy="0.3em" fill="rgb(50, 49, 63)" stroke="none" stroke-width="1px">40</text><text style="text-anchor: end; visibility: inherit; font-family: &quot;Helvetica Neue&quot;, sans-serif; font-size: 12px; font-weight: 200;" x="0" y="112.80065465791955" dx="0em" dy="0.3em" fill="rgb(50, 49, 63)" stroke="none" stroke-width="1px">50</text><text style="text-anchor: end; visibility: inherit; font-family: &quot;Helvetica Neue&quot;, sans-serif; font-size: 12px; font-weight: 200;" x="0" y="42.01665321464145" dx="0em" dy="0.3em" fill="rgb(50, 49, 63)" stroke="none" stroke-width="1px">60</text></g><line x1="29.992000579833984" y1="0" x2="29.992000579833984" y2="378.57999897003174" fill="rgb(0, 0, 0)" stroke="rgb(204, 204, 204)" stroke-width="1px"></line></g></g><g transform="translate(30, 0)" clip-path="url(#clip_0)"><clipPath id="clip_0"><rect width="962" height="378"></rect></clipPath><g><g><g><line x1="0" y1="0" x2="0" y2="378.57999897003174" fill="rgb(0, 0, 0)" stroke="rgb(60, 60, 60)" stroke-width="1px" opacity="0.25"></line><line x1="96.2740999420166" y1="0" x2="96.2740999420166" y2="378.57999897003174" fill="rgb(0, 0, 0)" stroke="rgb(60, 60, 60)" stroke-width="1px" opacity="0.25"></line><line x1="192.5481998840332" y1="0" x2="192.5481998840332" y2="378.57999897003174" fill="rgb(0, 0, 0)" stroke="rgb(60, 60, 60)" stroke-width="1px" opacity="0.25"></line><line x1="288.8222998260498" y1="0" x2="288.8222998260498" y2="378.57999897003174" fill="rgb(0, 0, 0)" stroke="rgb(60, 60, 60)" stroke-width="1px" opacity="0.25"></line><line x1="385.0963997680664" y1="0" x2="385.0963997680664" y2="378.57999897003174" fill="rgb(0, 0, 0)" stroke="rgb(60, 60, 60)" stroke-width="1px" opacity="0.25"></line><line x1="481.370499710083" y1="0" x2="481.370499710083" y2="378.57999897003174" fill="rgb(0, 0, 0)" stroke="rgb(60, 60, 60)" stroke-width="1px" opacity="0.25"></line><line x1="577.6445996520996" y1="0" x2="577.6445996520996" y2="378.57999897003174" fill="rgb(0, 0, 0)" stroke="rgb(60, 60, 60)" stroke-width="1px" opacity="0.25"></line><line x1="673.9186995941161" y1="0" x2="673.9186995941161" y2="378.57999897003174" fill="rgb(0, 0, 0)" stroke="rgb(60, 60, 60)" stroke-width="1px" opacity="0.25"></line><line x1="770.1927995361328" y1="0" x2="770.1927995361328" y2="378.57999897003174" fill="rgb(0, 0, 0)" stroke="rgb(60, 60, 60)" stroke-width="1px" opacity="0.25"></line><line x1="866.4668994781493" y1="0" x2="866.4668994781493" y2="378.57999897003174" fill="rgb(0, 0, 0)" stroke="rgb(60, 60, 60)" stroke-width="1px" opacity="0.25"></line><line x1="962.740999420166" y1="0" x2="962.740999420166" y2="378.57999897003174" fill="rgb(0, 0, 0)" stroke="rgb(60, 60, 60)" stroke-width="1px" opacity="0.25"></line></g><g><line x1="0" y1="311.1221385556167" x2="962.740999420166" y2="311.1221385556167" fill="rgb(0, 0, 0)" stroke="rgb(60, 60, 60)" stroke-width="1px" opacity="0.25"></line><line x1="0" y1="199.43327087747872" x2="962.740999420166" y2="199.43327087747872" fill="rgb(0, 0, 0)" stroke="rgb(60, 60, 60)" stroke-width="1px" opacity="0.25"></line><line x1="0" y1="112.80065465791955" x2="962.740999420166" y2="112.80065465791955" fill="rgb(0, 0, 0)" stroke="rgb(60, 60, 60)" stroke-width="1px" opacity="0.25"></line><line x1="0" y1="42.01665321464145" x2="962.740999420166" y2="42.01665321464145" fill="rgb(0, 0, 0)" stroke="rgb(60, 60, 60)" stroke-width="1px" opacity="0.25"></line></g></g></g><g><g><line x1="96.2740999420166" y1="0" x2="96.2740999420166" y2="378.57999897003174" fill="rgb(0, 0, 0)" stroke="rgb(153, 153, 153)" stroke-width="1.5px"></line></g></g><g><g><g><g><g><path style="fill: none;" stroke="rgb(255, 112, 67)" stroke-width="2px" d="M126.16720797401275,-12.561339891564273L126.84112667360687,3.721428419757842L127.22622307337492,9.46202137176482L127.46690832322996,20.653517544096985L127.563182423172,25.09529709452903L128.14082702282408,36.63587545927783L128.62219752253418,28.99512693914204L130.69209067128753,29.83822157542562L131.0771870710556,40.54687038609262L131.46228347082368,48.75927441009151L132.71384677006986,54.0828569957186L133.14708021980897,61.20311540396875L133.33962841969299,56.031523314222056L133.435902519635,54.462230628120324L134.10982121922913,51.72855247446074L134.20609531917114,56.775026220869904L134.5430546689682,57.58660161035408L134.92815106873627,64.95491998855823L135.2169733685623,78.76733527006866L136.56481076775054,80.67032294803869L140.07881541563412,80.75881424031752L141.66733806467744,84.62051702811368L141.81174921459044,37.86838788141347L142.6300790640976,45.58525667742151L143.06331251383668,49.73172227871544L143.11144956380767,52.33133003419073L143.40027186363372,25.828493714227477L143.68909416345977,36.7772406118367L144.55556106293793,39.457827460515375L144.69997221285092,52.71789723574511L145.13320566259,48.6858496792575L147.49192111116943,57.55683564533376L147.63633226108243,54.36395733849383L147.9251545609085,64.85263251495309L148.21397686073456,68.03352714824939L148.9360326102997,82.32626647890413L149.2248549101257,93.90159992814807L149.46554015998078,96.63040341040369L151.96866675847318,98.42582984547465L152.20935200832824,97.20897340926678L152.25748905829926,92.13718763461077L153.12395595777738,94.42361178540762L153.7497376074005,98.1758127944816L156.20472715592194,102.38075372646239L157.02305700542905,80.61928769727842L157.98579800484924,86.22139753249235L159.67059475383454,80.74635641426983L159.81500590374756,76.12458797683229L160.48892460334164,72.39726879502888L160.6814728032257,84.09457911961238L162.9920512018341,89.4364193210738L163.32901055163114,90.97351002615903L164.38802565099334,98.3056893302799L164.96567025064545,105.95656084716887L165.4470407503555,105.28947571269327L166.89115224948577,111.93883022462376L167.42065979916686,123.9156407377769L167.80575619893494,115.84082581640388L168.094578498761,125.30568061435483L169.63496409783323,125.13572981897292L171.03093854699247,124.02102884891002L171.80113134652862,133.0989786599402L172.57132414606474,137.37012843839543L172.76387234594878,149.64160029664137L173.58220219545592,151.42800977119384L175.2188618944702,152.2994230665157L177.24061799325256,143.53648030371332L177.67385144299163,149.10681224121754L177.96267374281766,138.93833566471338L178.20335899267272,136.62663579209288L178.5403183424698,143.22616212787733L178.97355179220887,142.88861220077862L179.64747049180295,147.95916234903015L179.74374459174498,152.00074252223953L179.888155741658,158.3364217613852L180.3213891913971,161.03960389871864L182.00618594038238,129.03672076507314L183.1614751396866,123.90487935170381L184.17235318907774,130.97760805662494L185.0388200885559,132.5823693570197L185.47205353829497,134.88361700376183L186.0978351879181,134.61963428263996L186.24224633783112,128.2418046714032L186.62734273759918,124.63450210337635L188.5528247364395,125.61939559876663L189.37115458594667,130.3779048725203L189.8525250856567,125.43482767678L189.99693623556976,116.6174681381487L190.95967723498993,121.64939943362202L191.72987003452604,112.75270457656808L192.5963369340042,114.76445104146245L193.1739815336563,124.75811251184243L193.99231138316344,126.68406079531212L194.2811336829895,99.74052775816028L196.0622045319168,98.99731329716224L196.20661568182985,104.46879908790334L196.25475273180083,103.8295986301132L196.6398491315689,96.23998892148683L196.83239733145294,104.21360782564045L197.16935668125,109.51889861948223L199.72062032971343,115.28017003931541L200.0575796795105,128.76896359900243L200.49081312924955,138.43727890483012L201.54982822861174,130.3657869375073L201.74237642849576,114.82356930800336L202.12747282826385,112.01925641049706L202.5125692280319,122.6373721080987L202.70511742791592,128.60945189713715L203.66785842733609,131.9841652641056L203.90854367719115,132.3008324206382L203.95668072716217,124.58738589910041L204.1973659770172,125.11352471458281L204.7750105766693,129.52112746064944L204.91942172658233,129.34820500293498L205.1601069764374,141.5001616104086L206.0747109258865,150.28145499414373L206.84490372542268,143.35599729191316L207.32627422513275,150.18914114899005L207.90391882478485,150.33930651483684L209.15548212403107,152.11111576668853L209.58871557377014,140.96287865086742L211.27351232275544,152.12041762406113L211.32164937272643,152.6905012976109L211.41792347266843,160.1724273693764L213.5359536713928,163.70450996551378L213.9210500711609,159.95156954810705L214.35428352089994,148.920902936502L214.45055762084198,134.6356301182745L214.691242870697,137.54341400426677L215.89466911997224,132.64363026968874L215.94280616994322,131.49680715004754L216.42417666965332,133.74789839987585L216.52045076959533,135.6573412234468L216.76113601945036,142.28925616544387L217.43505471904447,128.9196478516396L217.72387701887052,126.04321291971209L218.1571104686096,133.562508619674L218.87916621817473,137.87672931305354L219.16798851800078,139.10056488670057L221.71925216646423,138.18054623719527L222.53758201597137,137.383464312916L225.5220791141739,118.36783833743954L225.7627643640289,123.42638190744293L226.38854601365202,109.77329168472863L228.16961686257932,113.949161681975L228.84353556217346,129.22950048870172L230.52833231115875,121.86860608806285L234.52370745875243,131.3660443638714L235.39017435823058,134.29359343624927L235.6789966580566,129.66120077987577L236.8342858573608,122.4063544576639L239.0967272059982,128.28616086438504L239.4818236057663,127.59720974527559L241.21475740472258,128.06362122312007L241.98495020425872,122.47549841361462L242.12936135417175,120.24020604656658L242.5144577539398,122.53694763770966L242.65886890385283,127.59347774891711L244.00670630304108,146.15799233769985L245.45081780217131,148.77307413185878L248.14649260054776,153.83914332065382L248.43531490037384,167.42379754341147L249.20550769991,176.58146936733658L250.07197459938808,182.3866361604146L250.1201116493591,185.96689868688475L251.70863429840242,163.87436870400353L252.19000479811248,163.48850179467937L252.3344159480255,164.38797990180515L252.3825529979965,156.85666367972436L252.4788270979385,168.34828965312576L252.52696414790952,173.98304619930917L253.73039039718475,179.17861093058642L255.318913046228,179.05351628659292L257.24439504506836,170.5672263751843L258.7366435941696,168.10131446135813L260.03634394338684,161.81967399720352L260.27702919324184,142.1227840394076L261.3360442926041,130.93794045936622L262.25064824205316,128.1165136596776L262.97270399161835,119.85593695510192L263.74289679115446,130.08777747134982L265.1388712403137,140.42608799153558L265.28328239022676,144.17516005723374L266.48670863950196,154.6034785754503L268.55660178825525,160.70830860586835L269.51934278767544,175.2224914608692L270.3858096871536,179.98110378720622L270.48208378709563,190.63739389254172L270.57835788703767,192.8297545371296L270.86718018686366,199.05069601254667L272.21501758605194,203.26238909776276L272.888936285646,206.06670056606964L275.5846110840225,207.92622993601972L275.77715928390654,202.1208835888662L276.3066668335876,206.95679925213753L277.79891538268885,219.24121497028565L278.18401178245693,213.31669816053585L278.8097934320801,213.03132111416798L279.0504786819351,187.82027057744713L279.82067148147127,179.42622206559741L280.06135673132627,155.81207723603183L280.15763083126825,163.15455717786676L280.6390013309784,162.30721408364647L282.22752398002166,161.9739399163196L282.80516857967376,152.4190442290905L285.3082951781662,164.24831167294442L285.83780272784725,170.271354505259L286.6561325773544,161.5456349358387L288.0039699765427,150.97560264264507L289.2555332757889,157.57782491077603L289.8331778754409,170.00131175919074L290.36268542512204,149.52210597396618L290.5070965750351,140.20681288452772L293.25090842338255,142.0312347748787L293.4915936732376,138.6780237303137L294.0211012229187,145.93319960728724L297.5351058708023,154.07250158752612L298.0646134204834,153.50642933875878L298.1127504704544,134.04028695337345L298.2090245703964,138.21769242586922L298.4497098202514,131.28019964430968L298.4978468702225,121.02642207792735L299.70127311949767,121.21296341394469L299.9419583693527,132.91336529191014L300.0863695192657,136.03016105522994L300.4714659190338,138.7539393808837L301.434206918454,133.34449051899756L301.57861806836695,137.4275698823349L301.626755118338,147.80777347116936L302.3488108679031,146.74631393381222L303.4078259672653,159.13677334933857L304.03360761688845,154.053474798981L304.1298817168304,166.96775639030454L304.7556633664535,171.1902287487676L306.5367342153809,169.28022139203983L307.692023414685,177.3622753530035L308.0289827644821,176.29667054954845L308.3178050643081,160.6297730501847L309.4730942636124,157.36859215438375L309.61750541352535,118.6286623331714L312.4575913618149,125.19338274754571L313.27592121132204,131.6971176339454L314.2867992607132,137.8017283767772L314.4312104106262,153.0235178923063L316.5973776593216,156.26892555723543L316.7417888092346,167.08629012245447L317.5119816087707,168.4588130902616L319.004230157872,153.91841076948074L320.3520675570602,156.03498608597596L320.7371639568283,153.18464875164676L320.9297121567123,147.97974893363704L321.3148085564804,138.14071755439986L321.84431610616144,143.1019162988709L323.0958794054077,131.1012251547873L323.33656465526275,141.37702463165604L324.10675745479887,136.86761200528773L324.87695025433504,139.32243136436261L325.2620466541031,146.25445149525302L325.69528010384215,151.71201582011042L326.12851355358123,151.54745271497472L326.6580211032623,165.62948638785082L326.70615815323333,176.9517507202222L327.2838027528854,160.37868139817652L327.3800768528275,161.0708706454711L329.1611477017547,175.275620981806L329.7387923014069,185.5066811443505L330.65339625085596,141.0807929232794L331.7605484001892,140.59794993568096L332.72328939960937,159.85508673859715L335.0338677982177,163.80246785039836L335.4671012479568,168.17219038674511L335.6115123978699,126.42696208073284L338.1627760463333,132.8156468166568L338.30718719624633,152.94369148081648L339.26992819566647,158.51239708615887L339.3662022956085,152.06890954509126L339.4143393455795,163.5071746061725L341.96560299404297,177.9124954857793L342.92834399346316,186.8725063280716L343.31344039323113,186.99409806892604L344.80568894233244,199.27744391818956L345.62401879183955,200.67240679078628L346.4904856913177,212.15871223406162L346.8755820910858,199.60097954296873L348.36783064018704,212.9406696456575L350.7746831387375,214.9972941535389L352.1706575878967,240.64066422466956L352.7001651375778,243.12502107331153L353.47035793711393,246.4742496836678L354.14427663670807,251.75628609068895L355.15515468609925,270.12063776013747L357.0806366849396,269.47090560071575L358.13965178430175,277.49613804029656L358.3803370341568,291.04464633198506L360.16140788308405,302.24547120046265L360.69091543276517,277.19697637338487L361.6536564321853,287.4164198461622L361.74993053212734,292.0272091426721L363.29031613119963,286.64025500841467L364.44560533050384,260.1841752774595L365.0232499301559,265.32860569884923L365.1195240300979,268.388698201781L365.408346329924,268.4981993079482L367.18941717885133,263.5969496231372L368.5372545780395,289.59068171942727L368.6335286779816,266.0688581140757L368.8260768778656,273.97710955635665L369.54813262743073,295.1785062955121L371.52175167624205,311.95821039217515L371.6661628261551,295.5777061779763L374.2174264746185,299.46704511027974L374.3618376245315,291.1094627327671L374.8432081242416,281.8787290120743L375.70967502371974,280.93546482196683L375.75781207369073,285.0864857743941L376.5761419231979,285.80729207812135L376.7205530731109,287.01581052980174L378.35721277212525,291.96512119039335L378.45348687206723,281.9865163097702L378.79044622186433,275.7643410022631L380.5233800208206,290.5599502364049L381.53425807021176,291.4273284748137L382.68954726951597,290.47977400533824L382.93023251937103,299.636232286847L383.2190548191971,301.858603470755L384.51875516841426,310.9496139077367L385.48149616783445,308.75122999064735L385.7221814176895,322.9432443305808L386.4442371672546,330.18334268155854L386.68492241710965,339.465802811108L388.754815565863,317.33532107854165L389.95824181513825,333.4215459070259L390.05451591508023,333.78255926331565L390.82470871461635,329.2783976367277L390.9209828145584,343.70128195869955L391.20980511438444,337.99492845211495L391.3060792143264,311.9744046899383L392.1725461138046,293.9282063620387L393.2796982631378,285.54707121574415L393.71293171287687,290.54128539065414L394.627535662326,310.9406741912025L395.1570432120071,324.8396369716557L395.25331731194916,301.1902119472405L395.54213961177516,311.05868507378506L396.16792126139825,274.85746935300233L397.03438816087646,264.8747737333818L398.91173310974574,220.01071916959646L400.01888525907896,214.65281297461672L400.259570508934,190.17029538372955L401.41485970823817,195.14132497024488L401.9443672579193,215.27262616456304L402.47387480760034,226.52138031085732L402.81083415739744,245.6107222834282L403.0996564572235,254.78955338474168L404.2549456565277,264.17873485586705L407.0468945548462,267.944614898787L408.77982835380243,267.11698212037686L408.8279654037735,269.55294870600954L409.0205136036575,275.4100919287532L409.9832546030777,279.4185152135107L410.0313916530487,267.01228184847L410.07952870301966,270.6745720750165L410.46462510278775,278.5159958925934L412.5826553015121,280.7408676785852L412.9196146513092,272.9474849224971L413.0640258012222,292.9670226535295L413.97862975067136,306.57451376062903L416.57803044910577,313.5358346496559L417.01126389884485,300.51226310420793L417.10753799878694,286.4030475415856L417.30008619867095,306.8669943038251L417.588908498497,302.0640037519022L417.73331964841003,303.4202855859822L418.0702789982071,292.94008411432344L418.4553753979751,299.2041747438019L418.5997865478882,301.688831298721L419.1774311475403,303.1876567405003L420.4771314967575,297.81962268270956L420.66967969664154,289.43027927931786L421.1991872463226,310.44031010709466L421.7286947960037,252.13325476363292L425.00201419403226,249.70076333086973L425.6759328936264,242.83624326084862L426.0610292933944,254.02157463702628L426.73494799298857,245.55291632517918L426.7830850429596,261.42146322596477L428.0346483422058,281.79362356488934L428.7085670417999,275.69715711666413L429.91199329107513,288.2653143253931L431.30796774023435,267.4087213007982L431.4523788901474,284.2415505483326L432.7039421893936,282.29606677900034L433.5704090888717,295.71778387218137L433.7629572887558,302.18257648186005L434.966383538031,293.99431249143345L437.4695101365234,304.46862208541506L438.19156588608854,295.3266478228327L438.5766622858566,292.851893299957L438.6247993358276,278.3194690829594L439.6838144351898,285.94963069461613L440.55028133466794,295.8461863999478L442.47576333350827,303.6939932266316L443.48664138289945,305.5771044673662L444.9788899320007,303.0267140035136L447.5301535804641,292.0456059476648L448.05966113014523,275.6689597831949L448.9261280296234,277.98675392011955L449.40749852933345,266.8964584364947L449.45563557930444,263.2329010686543L450.37023952875364,264.02815263731463L451.4773916780868,275.09731245177784L452.39199562753595,272.12765285431493L453.8361071266662,282.8126912791319L454.2693405764053,273.831144039442L454.4137517263183,267.65105983711567L454.7507110761154,272.27588791609037L455.2320815758255,269.70716603522897L455.3764927257385,266.90766504339655L455.61717797559356,270.7828656372284L456.09854847530363,281.6785993410099L457.2538376746078,284.0769223579988L457.6870711243469,302.6535065682222L458.60167507379606,312.005511266816L459.4200049233032,315.6733217038591L462.4045020215057,306.5828460022644L464.089298770491,289.28626373436435L464.90762861999815,300.7544914370751L465.3889991197082,283.0339167847111L465.6296843695633,302.53804126537676L466.1591919192444,304.1414615305656L466.4480142190704,278.7462180785165L466.7849735688675,290.9193444550625L467.65144046834564,295.42434963728476L467.89212571820065,311.11080384893455L468.1328109680557,322.53075321103955L468.99927786753386,351.1624789959188L469.528785417215,306.2674257528847L469.67319656712795,239.26349520613738L470.63593756654814,252.44298352063066L471.0210339663162,272.52351010066303L471.5024044660263,246.5806906711188L473.18720121501156,254.37617711133188L473.4278864648666,264.35019267237084L476.3642465130981,273.528638997977L476.4123835630691,212.96979688860455L477.9527691621414,223.70053323883116L480.02266231089476,224.13679627322674L480.4077587106628,246.01486883880023L480.7928551104309,235.07170241128833L480.84099216040187,232.73462342048043L482.47765185941614,239.9288907873317L483.0071594090973,251.88452686776623L483.58480400874936,244.38504112253796L484.3549968082855,237.76778271864526L487.243219806546,265.68617510219616L488.39850900585014,257.0774116787455L489.84262050498046,257.66261975330394L490.0351687048645,269.3734241894807L490.7090874044586,244.8772059045843L491.52741725396567,246.38696021900589L491.81623955379183,250.56605854018858L493.83799565257414,262.8040250011044L494.6081884521103,254.99828834066213L495.1376960017913,252.9368370634748L495.57092945153045,252.5568846630713L495.9560258512985,261.01269975207504L496.91876685071867,267.9429004221235L497.01504095066065,287.2505504522439L497.1594521005737,295.53755597965875L497.25572620051565,296.08021577726504L497.5445485003418,243.11457676021666L498.50728949976195,216.19533344845271L498.651700649675,222.4779794698245L498.89238589953,230.38117167294448L499.3256193492691,231.71881428334225L502.69521284723965,229.16758026903577L503.65795384665984,237.56206593770628L503.7060908966308,236.66051537137182L503.80236499657286,252.68090123276392L504.476283696167,262.99807706094924L504.668831896051,259.14852638254666L505.10206534579004,261.8384013855347L505.15020239576114,262.8541810811563L505.39088764561615,275.31107109657773L505.63157289547115,284.13496562484147L506.35362864503634,273.4582339737425L507.84587719413753,283.32926442245275L508.42352179378963,298.5538342358562L508.7604811435867,300.9800851301395L509.0011663934417,296.22707553828377L509.6750850930358,283.4486375455207L510.10831854277495,272.80482655251546L511.35988184202114,266.8387819969704L511.6968411918182,266.299028323716L511.74497824178917,272.69759627066196L512.1782116915283,277.85582493667357L514.0074195904266,299.8573905913335L514.3925159901946,309.06857638339864L514.4406530401657,304.21663084256636L514.6332012400496,322.8564952173689L516.173586839122,329.49671757284045L518.4360281877593,323.02699985437664L518.6285763876433,306.363968907348L519.7357285369767,265.31810510938993L520.6021954364547,270.910652803653L520.7466065863678,281.4263060059143L521.7574846357589,301.59570473532153L522.28699218544,292.5500606991321L523.4422813847442,296.04119121932973L523.7792407345413,281.78642175010043L524.5975705840485,278.53938945671365L524.6938446839905,250.6626930847994L524.8382558339035,260.19347700782697L525.8491338832947,266.7467143643288L525.9454079832367,276.45477752632604L526.1860932330917,288.3488555277875L526.7156007827729,292.5838014021824L527.2932453824249,302.42578977321375L528.111575231932,308.3042887192703L528.9780421314102,297.93092573658276L529.2668644312362,312.78791809492077L529.7482349309463,290.4114268715164L530.6147018304245,286.30189148777015L530.6628388803955,293.49560807039455L531.9625392296127,309.28435398669905L532.3476356293809,302.58947229367203L532.8290061290909,241.73384869982564L533.3585136787719,251.4862726939237L534.3693917281631,260.11370376967693L535.2358586276413,273.15354013508806L536.7762442267135,279.72573008965924L537.1132035765105,255.5115653052224L539.616330175003,265.97150259799093L539.7126042749451,262.8971713752793L540.1939747746552,271.3422790576745L540.5309341244522,276.6239980051209L541.8306344736694,266.5733386575838L542.8415125230605,217.77087453126373L543.3228830227707,241.5304842515622L544.0930758223068,240.1586216401897L544.1893499222489,233.35397690761636L544.5263092720459,243.2155883895578L546.0666948711182,254.41546054667555L546.8368876706542,255.1476481836319L547.0775729205094,270.173317777526L549.1474660692627,282.74056175224587L549.2918772191757,289.62964302938815L550.2546182185959,285.8990968131609L550.5434405184219,299.9981670681864L550.5915775683928,301.5160527554626L551.8431408676391,288.6355089467322L552.1801002174362,299.2513488305719L555.2127343656097,305.1508613067167L555.6459678153489,294.1238496564527L555.9829271651458,274.4109197481171L556.4642976648558,300.8478083906124L556.608708814769,312.4176697363837L557.6677239141312,320.21864581442037L558.1972314638122,320.0031826944184L558.7267390134933,327.6171000114282L559.3043836131454,321.4752521135058L559.3525206631164,254.52028971380236L559.4969318130295,255.62249088773234L560.6522210123337,257.4398666626181L560.9410433121596,268.7725052597526L562.0000584115219,276.8978704492344L562.481428911232,290.56079651457634L562.866525311,282.0203577115932L565.8028853592315,233.08015890841642L566.2361188089706,241.92973174905543L566.6693522587098,245.34322207794673L568.354149007695,258.6231435260966L569.7019864068832,284.3026605136873L569.8463975567962,292.70168297216554L571.7718795556366,292.1940962801731L572.9271687549407,282.26974391552363L576.0560770030563,288.11360801291227L578.0778331018387,274.5945577236175L579.8107669007949,270.20195151985666L580.05145215065,286.5049993360381L580.099589200621,252.586241471417L580.195863300563,269.11298454583215L580.8697820001572,268.0140566881664L581.4474265998092,291.103653367351L582.5545787491424,294.58722203391574L582.8434010489685,290.15107718728444L583.5654567985335,277.64410487576436L583.8542790983597,279.46368729284904L584.3356495980697,260.6428343220512L585.4909387973739,274.9151540717255L586.309268646881,286.21491553098144L587.3682837462433,291.91971682433723L588.8605322953446,290.28958156229504L589.1974916451416,280.5874778313589L589.7269991948227,274.10654011148335L590.6897401942429,272.0563996567129L591.0266995440398,286.239349725501L591.2673847938948,282.4015678743824L593.2891408926772,290.94165240013905L595.0220746916335,311.3825937470135L596.3699120908218,301.63768326912736L596.4661861907639,319.52739594518937L596.5143232407348,295.18685908954944L596.6105973406769,282.6791164167598L597.3326530902419,282.03504305751966L597.6214753900681,280.23107545854464L597.8621606399231,300.59246500951383L599.2581350890822,279.99710689560845L599.9320537886764,281.00188083561665L600.4615613383576,283.9743923051186L600.9429318380676,274.5144153620567L601.1354800379515,290.98839870440554L601.1836170879226,284.193122525038L602.5314544871109,287.03215076814786L602.9646879368499,286.1657067517837L604.0718400861831,301.77859051460035L604.119977136154,309.9082153470148L604.6976217358063,338.4776064458856L606.1898702849076,323.74607935936183L606.6231037346465,341.9276686324173L607.4414335841537,336.21014291581616L607.6821188340087,333.9798392081939L608.1153522837478,334.1509833516367L608.5004486835159,331.4037455546389L608.8855450832839,339.7939885648989L609.7038749327911,316.13448526898753L611.1479864319214,316.2870962704045L611.6293569316314,325.8382239190706L613.4104277805587,333.94129957084897L613.8436612302978,330.42095729704516L613.8917982802689,343.0792158892467L614.1806205800949,318.40924613457094L614.9508133796311,306.6904646058312L615.2877727294281,294.8137974179836L616.6356101286162,298.50418379970137L616.6837471785873,302.37908535596046L617.1169806283264,303.5358735086128L617.3576658781814,294.99805221532296L617.8871734278625,304.1751858389785L618.3204068776016,303.0879677298451L618.9943255771957,274.8219725213678L620.8235334760941,277.51614308680513L620.967944626007,257.276751769262L621.4011780757461,267.0347112920436L622.6046043250213,278.1992138186748L622.7971525249054,267.44897756385615L623.2303859746444,274.39291792198907L623.9043046742386,292.1120478587526L624.1931269740646,303.78464375483617L624.2894010740066,309.4239658657855L625.9260607730209,315.9254872329827L626.2148830728469,323.49797768600007L626.503705372673,298.513350467461L626.599979472615,286.92074758437406L626.6481165225861,271.27809903435434L627.1294870222961,284.0600867035381L627.3701722721511,290.71194550677143L628.0440909717453,287.5035884918583L628.4773244214844,277.1003072567454L629.2475172210204,288.58545741321973L630.4509434702957,315.37923080582596L631.3655474197449,310.4200062124523L631.798780869484,320.5422343734826L632.6652477689621,325.598971747386L633.9649481181792,315.11247291299617L635.0721002675124,329.71183999328525L635.1683743674545,295.3741161200338L635.2165114174255,301.02022841547085L637.671500965947,255.68651667188328L638.056597365715,285.97542896663526L638.201008515628,293.5037684119409L638.6342419653671,298.83895364934483L640.4153128142945,306.0871533386728L641.9075613633956,218.54115589982263L642.8703023628158,223.7190935546269L643.784906312265,235.43909223747352L645.2771548613663,235.60979376563125L645.6622512611343,238.87837133999182L645.7585253610763,242.4957072772186L647.3951850600906,245.6421028423408L648.2135149095977,256.06242465907053L648.8874336091919,275.14810676229166L649.1762559090179,262.01630379309495L650.5240933082061,264.4556389901882L650.6685044581192,277.7369981810526L650.7166415080901,284.831941567609L651.0054638079163,269.0859817344988L651.1017379078583,278.8640981456953L651.9200677573654,278.5774338730321L652.3051641571334,299.0088785715015L652.7383976068726,309.0532033752048L653.4604533564376,297.6552553057052L654.2306461559738,287.82516659516324L656.1079911048431,275.76248621058056L656.6856357044952,267.7730432606432L656.7819098044372,268.8224976178847L657.2632803041473,283.7144470444461L657.7927878538284,299.4773528976722L658.1297472036255,276.19864743172445L658.4667065534225,278.7492846404677L658.5629806533645,287.7639948450939L659.3813105028717,273.2913011163877L660.2959144523207,298.3121634593124L662.028848251277,295.6262971264488L663.3285486004943,299.58228473881513L663.6173709003205,281.92391471006465L664.0506043500594,242.8505448774128L665.4947158491898,269.0235988039196L666.601867998523,281.843639527925L666.6500050484939,303.3190090714405L667.516471947972,315.6247054492256L668.8643093471603,301.2007114876536L669.1049945970153,299.95243333859474L670.4046949462326,326.22637118839185L670.7897913460006,329.3445805867858L671.0304765958556,314.30057650503693L671.1267506957978,317.6667372803058L671.1748877457687,271.9321516261985L672.1376287451889,271.1800840854343L672.378313995044,255.2329986251656L673.0522326946381,249.30800699069087L673.5336031943481,261.19090747090735L673.7742884442031,256.31683057031455L674.1112477940003,251.14915426334727L675.0258517434494,228.26396081875708L675.6034963431015,248.64704078010834L677.2882930920867,260.2140538387067L677.7215265418258,278.6003445091558L680.0321049404342,288.4247605243363L680.2727901902892,313.5547704196917L680.9948459398544,288.1352946515229L681.5243534895354,282.02610749429016L681.7169016894195,275.7614381596719L682.4870944889557,283.74377353376644L683.1128761385788,287.25902886900855L684.075617137999,299.2844735279708L684.5088505877379,271.0266468036813L684.8939469875061,282.21600018994087L686.6268807864623,289.39350450158025L687.5896217858825,316.0381188078096L687.7340329357955,324.06207683947264L688.5042257353316,311.0829948163687L689.2744185348678,263.16320295855326L692.6921490828095,240.35931308215905L693.1253825325484,241.8807315622504L693.1735195825195,243.4692196838159L694.6176310816497,239.981256268856L695.5322350310989,250.89263657905758L695.676646181012,253.99831594051415L696.7356612803741,267.146132707697L698.8536914790984,267.8021681280859L699.8645695284896,273.4119316225511L700.1533918283156,278.4690320469973L700.2496659282577,288.52810574068207L701.2605439776489,289.1705505696057L702.3195590770111,304.99346804148877L703.7155335261702,312.27221901286543L705.9298378248367,293.5143492629714L707.277675224025,293.3277613295686L710.1177611723144,300.4895759215412L710.8879539718505,292.5637010292983L712.3802025209518,311.116933933448L712.7652989207198,305.9589802521401L713.776176970111,287.5249326897517L714.9796032193863,295.95501909599284L715.2202884692413,303.22756710835773L715.8460701188644,301.7591071713955L716.4237147185165,287.04606174357957L716.7125370183425,273.5741298992167L718.7342931171249,280.19998753837035L718.782430167096,273.6561670850242L719.023115416951,259.7601978742672L719.7451711665161,249.71672397368445L722.5371200648345,275.9439856129953L723.3554499143416,290.445962542256L724.655150263559,294.5835973760883L724.7032873135299,269.7058606851336L725.088383713298,276.6851973498563L725.6660283129502,281.4629154058138L725.8104394628631,265.8025645609092L726.2436729126022,259.8594485901636L726.9657286621673,245.87236468376577L727.1582768620514,243.15883662484478L727.9766067115585,230.1308248711064L728.8430736110366,229.4136637390794L729.7095405105148,240.9779241311596L730.4315962600799,264.5979249284495L730.91296675979,281.58612279978973L731.057377909703,286.2997974088828L731.6350225093552,298.0234205925864L731.6831595593261,266.9728397195046L731.8757077592102,255.92823870041124L733.2235451583985,275.0734057078286L734.4751084576446,250.8126063384298L736.0636311066878,258.3550671602769L736.7856868562529,257.1684661411764L738.5186206552094,241.37268407414248L738.7593059050644,258.95156808057067L741.0698843036728,279.02985190359533L741.2624325035569,302.8357730710944L742.225173502977,308.7141549498229L744.5838889515563,327.03619428891216L745.8354522508026,319.40934712630525L745.9798634007157,294.3834321373022L748.001619499498,280.9049307582238L748.7718122990341,276.59141640297975L750.4566090480193,271.87848715322264L751.1786647975845,278.9265648960242L751.5637611973525,285.34562515944776L751.8525834971787,300.12107341932943L753.4411061462218,296.8498259255675L754.259435995729,323.2449239571538L754.403847145642,302.7196849601023L754.548258295555,300.40279848291266L755.1740399451782,318.88673325899333L756.4737402943954,294.02295976216567L757.3402071938735,279.2583893395152L757.6771665436706,283.91003668621545L758.0141258934676,269.84619820865373L759.0731409928298,258.4831340469027L760.084019042221,250.18887799316312L760.7098006918442,256.48706392695425L762.3945974408294,252.4611715497187L763.5017495901626,249.44712388651152L763.6461607400756,263.28156838908995L764.2719423896987,280.3790746828839L764.4644905895829,294.08786057954455L764.7533128894088,288.9890473327495L766.8232060381622,291.9819780614804L766.8713430881331,291.65099164853814L767.7859470375823,304.5812764584896L767.9303581874954,323.4402818097456L768.3154545872635,306.0921062550815L768.3635916372344,274.4104245834692L768.4117286872055,289.35420579090464L768.7005509870315,305.1995609526183L769.6632919864517,306.39273802046057L769.7595660863936,310.02095476588033L770.6260329858718,290.16980519680664L773.0328854844223,291.4547828366542L773.7068041840164,284.25839640900625L773.9956264838424,286.68104452208047L775.6322861828567,299.8300913474331L777.605905231668,322.8605849315472L778.9537426308564,321.03816584184017L780.2534429800735,340.43356948950566L780.4941282299285,332.2500173228301L780.7829505297547,332.7523353228903L781.8901026790878,351.5117817230634L783.093528928363,352.77573011673314L783.6711735280151,342.62563815943673L783.7193105779861,337.0968599258532L784.0081328778122,331.83815847900786L784.4413663275512,329.3336994691474L785.2596961770583,330.06504131413124L785.8373407767104,325.7200760860922L786.1261630765365,321.1970159131554L787.0889040759566,310.23144818710523L787.2814522758407,328.71840643141377L788.4367414751449,310.0851811319182L788.5330155750869,294.2697957324463L788.966249024826,307.4606535519795L791.3731015233764,299.9111782854994L792.5283907226807,303.2579432307406L793.6355428720138,293.6288722991078L795.2722025710281,285.67630343012803L795.320339620999,297.41934267150754L796.4756288203033,299.911541168505L796.5719029202453,310.7784720362938L796.6200399702163,277.89027361489343L798.0641514693465,261.49209952574876L799.2675777186219,263.6158834021693L799.5082629684769,229.12007408330723L800.230318718042,244.36209307014872L800.519141017868,245.82534363503987L801.9632525169982,243.85541451052353L802.0113895669692,257.5971319496797L802.3964859667374,250.22646260151004L802.5890341666213,249.62975233240323L802.8778564664474,247.36233440126563L803.6480492659836,242.08390219614847L805.7179424147369,252.46284189366142L806.2955870143891,261.40884481040894L806.82509456407,271.45839719611996L807.3064650637801,282.0503734023375L807.3546021137512,292.79074505142876L807.5471503136353,300.6652269193629L807.7396985135192,319.26069418817576L807.9322467134032,328.6415166392372L808.7505765629104,325.63809659692663L809.0393988627366,325.24690456689723L809.2319470626205,294.8762353774732L809.3282211625625,306.30792889912004L810.5316474118378,316.48414595026355L811.4462513612868,324.4971419743131L811.7832107110839,318.1601611367593L811.831347761055,324.33628036930753L812.601540560591,307.28498748513204L812.7459517105041,303.14834629334223L814.2863373095764,298.2073020641806L814.3344743595474,293.79469250007594L814.3826114095184,291.2632364466573L815.5379006088225,274.9011293388063L816.2118193084167,264.2950183723647L818.6668088569381,281.4064331721346L819.2444534565902,291.11318449494553L822.2770876047637,286.40254247440686L822.7584581044739,267.35379960780796L824.298843703546,283.8413353232483L824.4913919034302,297.1106867705648L825.4541329028503,287.47272134585114L826.6094221021546,291.2137237388814L826.7056962020965,287.4633430659238L827.5240260516036,275.9947190048093L829.305096900531,277.9477007685755L829.8827415001831,288.48131847513923L830.7492083996613,300.44007715175803L830.9898936495163,280.0904598903192L831.0861677494582,295.4113537212807L831.5675382491684,287.8968809636443L832.4340051486465,285.52663319587117L833.2041979481827,294.8569261158649L833.5411572979797,271.26756060588843L834.3594871474869,282.91438354945365L834.6483094473128,265.6172766559649L834.9852687971099,282.29568622077267L837.2477101457474,238.74020124366072L837.4883953956024,251.99189330560995L838.2585881951385,277.99388796247047L838.5474104949645,301.66563225718653L839.0287809946747,295.3622382769314L839.4138773944427,304.26564851414776L839.8952478941527,295.51347096347587L840.2322072439499,302.1558638240332L840.7135777436599,315.2405527993371L840.7617147936309,322.8516984380325L840.8098518436019,309.41862936612233L841.435633493225,314.4692740190733L842.3502374426743,332.54401417657806L843.3129784420944,342.67282994534435L843.8424859917754,365.90763336357725L846.1049273404129,368.1759497176141L846.6825719400649,356.2913272428478L847.2120794897461,322.92029171528833L848.7524650888183,309.6194469334069L850.2928506878906,302.20086168952383L851.7850992369919,283.02657851269345L853.5661700859192,281.2831192702149L854.7214592852233,270.66851923839266L855.1546927349624,274.7674551987322L855.4435150347884,270.6293956529895L856.1655707843536,273.6896149052151L856.9839006338607,284.09456326197557L857.6578193334549,300.48893302991326L857.8022304833679,302.9215704343452L858.716834432817,316.4548632710405L859.6314383822662,315.0401933448069L860.0165347820342,312.2201433803724L863.4824023799468,291.98488203532753L865.0709250289901,289.1218870782634L865.4560214287582,298.66835533058486L865.7448437285842,296.97496649395424L866.9001329278884,302.28962337042674L866.9482699778595,289.4697920972885L867.2852293276566,287.6258411755136L868.7774778767578,303.59619599203626L869.0663001765838,309.7151568669095L870.077178225975,329.1435025415498L870.6548228256271,335.71785311194446L96.70733339175567,331.9386463439013" fill="none"></path></g></g></g></g><g opacity="0.2"><g><g><g><path style="fill: none;" stroke="rgb(255, 112, 67)" stroke-width="2px" d="M109.17482933424682,-226.5554019778025L109.46365163407286,15.83175771138599L111.14844838305815,-70.05279481415323L111.62981888276825,-180.95988296267535L113.02579333192749,60.030774334303715L113.98853433134765,-55.1567369995152L116.5879350297821,-102.22988341906671L116.6360720797531,91.81821914358267L117.59881307917327,-2.750216008130508L118.46527997865142,66.01100823541128L119.13919867824553,26.594755536840808L122.12369577644805,123.81305075397134L123.42339612566528,-24.837003428521825L124.19358892520141,55.3020510760615L124.53054827499847,25.038997897786032L124.57868532496947,64.97335018047721L126.16720797401275,112.83045366618717L126.84112667360687,183.58322248888337L127.22622307337492,63.28875952841639L127.46690832322996,134.98067318462145L127.563182423172,66.29319079250627L128.14082702282408,156.03564016390584L128.62219752253418,-32.43797824854761L130.69209067128753,37.352556151209285L131.0771870710556,150.7410960454109L131.46228347082368,130.2075116219354L132.71384677006986,104.78299517519156L133.14708021980897,130.91703838135942L133.33962841969299,12.843173188272601L133.435902519635,40.76352418569502L134.10982121922913,28.17854264210746L134.20609531917114,104.96109934561963L134.5430546689682,64.90961621543858L134.92815106873627,137.8671429731643L135.2169733685623,230.72050788788624L136.56481076775054,98.12760967950226L140.07881541563412,81.55203136584572L141.66733806467744,121.04359930366871L141.81174921459044,-234.48812132142564L142.6300790640976,122.63179103552281L143.06331251383668,89.0482938039957L143.11144956380767,76.46996101050019L143.40027186363372,-154.7600923660367L143.68909416345977,151.99635569453136L144.55556106293793,64.39700915849767L144.69997221285092,197.94866347390453L145.13320566259,14.22570325635047L147.49192111116943,147.9323808765686L147.63633226108243,26.79032294447461L147.9251545609085,174.54681699373418L148.21397686073456,97.86239264629995L148.9360326102997,241.96980505882533L149.2248549101257,217.2110777658258L149.46554015998078,122.07056593348608L151.96866675847318,114.95654836728414L152.20935200832824,86.43296728268012L152.25748905829926,49.27227279970589L153.12395595777738,115.61866913329004L153.7497376074005,133.6659334757936L156.20472715592194,142.4077897901922L157.02305700542905,-74.30164145326972L157.98579800484924,140.62720593718612L159.67059475383454,34.67776709739701L159.81500590374756,36.843605229880495L160.48892460334164,40.378319703034265L160.6814728032257,209.06478749659826L162.9920512018341,141.12813810303555L163.32901055163114,105.08541727844704L164.38802565099334,171.37485363887882L164.96567025064545,182.5723874425893L165.4470407503555,99.33758134308607L166.89115224948577,177.5324354854744L167.42065979916686,252.49904547183104L167.80575619893494,49.86324815914924L168.094578498761,222.80778383583444L169.63496409783323,123.6096401535847L171.03093854699247,114.130920614633L171.80113134652862,226.046592302781L172.57132414606474,178.08223623824662L172.76387234594878,282.06329597268257L173.58220219545592,167.8858941421179L175.2188618944702,160.23107022309574L177.24061799325256,72.47549030761235L177.67385144299163,203.1984548866433L177.96267374281766,57.73067394131715L178.20335899267272,116.41891704896705L178.5403183424698,208.28733300636884L178.97355179220887,139.86386922353688L179.64747049180295,196.84500858683253L179.74374459174498,190.40234815113743L179.888155741658,220.5537104137309L180.3213891913971,186.2541041729914L182.00618594038238,-79.73038080218714L183.1614751396866,80.53768461613532L184.17235318907774,201.19919825559515L185.0388200885559,147.33161238300048L185.47205353829497,156.23252541090633L186.0978351879181,132.2518521563532L186.24224633783112,75.11698212332482L186.62734273759918,93.59398392627878L188.5528247364395,134.5976545892163L189.37115458594667,176.0521297320973L189.8525250856567,83.56994643805723L189.99693623556976,45.15564093772548L190.95967723498993,170.13699276040276L191.72987003452604,40.71067858412334L192.5963369340042,133.35518974895132L193.1739815336563,228.5949408959661L193.99231138316344,144.46148810786667L194.2811336829895,-83.56011576527624L196.0622045319168,92.3716553944924L196.20661568182985,157.52656776256154L196.25475273180083,98.12367372281238L196.6398491315689,33.883783711509864L196.83239733145294,184.47017008680325L197.16935668125,160.84182637893983L199.72062032971343,171.38346466603386L200.0575796795105,277.46456764608473L200.49081312924955,238.36993927024247L201.54982822861174,64.40663180427424L201.74237642849576,-2.6011477978530024L202.12747282826385,87.6523139871951L202.5125692280319,234.08963862187804L202.70511742791592,186.94480962300653L203.66785842733609,163.75410233710838L203.90854367719115,135.16251905639436L203.95668072716217,61.30159345931901L204.1973659770172,129.88113647471485L204.7750105766693,171.61751662661086L204.91942172658233,127.79535949848196L205.1601069764374,272.37248097381695L206.0747109258865,239.780568222517L206.84490372542268,86.02831712101664L207.32627422513275,217.7900024939151L207.90391882478485,151.69341469399356L209.15548212403107,168.43214028565558L209.58871557377014,52.854690118191286L211.27351232275544,270.2835382374474L211.32164937272643,157.8592775477152L211.41792347266843,234.9175736520631L213.5359536713928,197.0283960290423L213.9210500711609,127.71409156982807L214.35428352089994,61.63312510847123L214.45055762084198,25.340268376687675L214.691242870697,164.7426139229976L215.89466911997224,91.12411398061835L215.94280616994322,121.32504955585455L216.42417666965332,154.61757534165784L216.52045076959533,153.27856744765504L216.76113601945036,207.70306843378063L217.43505471904447,25.672513595786768L217.72387701887052,101.07155929147552L218.1571104686096,208.72356840828516L218.87916621817473,179.02701368759404L219.16798851800078,150.2922351659757L221.71925216646423,129.99703945426873L222.53758201597137,130.28242462814467L225.5220791141739,-20.54716196654215L225.7627643640289,172.18919904144605L226.38854601365202,4.642056094163308L228.16961686257932,153.702361423627L228.84353556217346,303.27655997350143L230.52833231115875,61.23571013054476L234.52370745875243,229.26506561540484L235.39017435823058,161.68507770906317L235.6789966580566,90.28363768404523L236.8342858573608,62.57549294520419L239.0967272059982,185.64283725055992L239.4818236057663,121.45105549471134L241.21475740472258,132.28673271451282L241.98495020425872,75.50242086636064L242.12936135417175,100.68142679875609L242.5144577539398,143.84296010971374L242.65886890385283,176.33548032574717L244.00670630304108,371.8287155535411L245.45081780217131,173.13699219301L248.14649260054776,202.6797716470355L248.43531490037384,317.4320727369922L249.20550769991,270.4706664652722L250.07197459938808,238.95360443846533L250.1201116493591,219.7679112417532L251.70863429840242,7.0163316933616215L252.19000479811248,160.03284974520784L252.3344159480255,172.57845903209002L252.3825529979965,94.93879586429074L252.4788270979385,290.73139713763237L252.52696414790952,228.75358902187534L253.73039039718475,229.3608350794498L255.318913046228,177.92947461279647L257.24439504506836,101.53677206214286L258.7366435941696,146.58578582220633L260.03634394338684,109.43797079837327L260.27702919324184,-0.8495392953757346L261.3360442926041,42.57470266525934L262.25064824205316,103.60597121944738L262.97270399161835,52.493288584186814L263.74289679115446,236.81049132150258L265.1388712403137,248.44623175110672L265.28328239022676,179.6529961087827L266.48670863950196,263.7241193958837L268.55660178825525,220.45649288358345L269.51934278767544,338.2104802563414L270.3858096871536,225.65664984103134L270.48208378709563,302.5605538371973L270.57835788703767,213.1388696941382L270.86718018686366,260.0392219474318L272.21501758605194,243.37680618030134L272.888936285646,232.26099556701178L275.5846110840225,225.07537666687477L275.77715928390654,153.44455641879043L276.3066668335876,253.42547605412238L277.79891538268885,351.8408264970274L278.18401178245693,163.70952292726147L278.8097934320801,210.47232357884516L279.0504786819351,13.720188007117088L279.82067148147127,111.0763613682659L280.06135673132627,-9.571840593368108L280.15763083126825,236.35201132966915L280.6390013309784,154.76321467808813L282.22752398002166,158.98727699706285L282.80516857967376,75.60128951914692L285.3082951781662,290.94715989626843L285.83780272784725,229.1484547065847L286.6561325773544,90.75487164376437L288.0039699765427,66.92138442421339L289.2555332757889,222.6700604289644L289.8331778754409,304.42334169681203L290.36268542512204,1.9509729797170507L290.5070965750351,65.1197370067984L293.25090842338255,158.84871568564836L293.4915936732376,109.73522595840598L294.0211012229187,218.1650865271634L297.5351058708023,236.20573600881514L298.0646134204834,148.44858111825837L298.1127504704544,-7.563340275710516L298.2090245703964,177.98636779005915L298.4497098202514,73.86072629954589L298.4978468702225,39.21019242806955L299.70127311949767,122.89588110096983L299.9419583693527,257.9589416806472L300.0863695192657,165.2680413418713L300.4714659190338,164.16809094235407L301.434206918454,87.77873631534766L301.57861806836695,176.24684347087194L301.626755118338,256.33970972139775L302.3488108679031,137.32155362413832L303.4078259672653,293.125170230773L304.03360761688845,111.07155471019081L304.1298817168304,307.89582873187067L304.7556633664535,211.41340940502474L306.5367342153809,152.5002740249547L307.692023414685,258.8459945067948L308.0289827644821,166.8355989166596L308.3178050643081,42.40921979180882L309.4730942636124,129.18879246744166L309.61750541352535,-121.19550983595877L312.4575913618149,189.87987901331647L313.27592121132204,195.7247882002007L314.2867992607132,197.54757425622574L314.4312104106262,326.2134635441701L316.5973776593216,186.76716211610596L316.7417888092346,281.00285278542844L317.5119816087707,181.03488585021907L319.004230157872,42.95699648518388L320.3520675570602,175.6220762629677L320.7371639568283,128.43168406935033L320.9297121567123,104.0322113775278L321.3148085564804,59.281938875466835L321.84431610616144,190.85978281693465L323.0958794054077,37.103139965847845L323.33656465526275,248.63484827541376L324.10675745479887,98.47966838606897L324.87695025433504,162.14358013053916L325.2620466541031,214.93491425821142L325.69528010384215,204.62424272230444L326.12851355358123,150.06951528847813L326.6580211032623,322.5251631961419L326.70615815323333,297.1894060525195L327.2838027528854,36.430588526879205L327.3800768528275,167.35674381070365L329.1611477017547,333.8909367852618L329.7387923014069,292.21990303275265L330.65339625085596,-122.77314632892478L331.7605484001892,136.27917467581744L332.72328939960937,397.40989501801886L335.0338677982177,201.26038716668128L335.4671012479568,209.88449775292798L335.6115123978699,-126.3268890596629L338.1627760463333,195.60374885317685L338.30718719624633,406.00902028070306L339.26992819566647,212.58908653231273L339.3662022956085,98.43713502246811L339.4143393455795,285.2129315448727L341.96560299404297,339.35610720871836L342.92834399346316,278.4494763223117L343.31344039323113,188.09014079903338L344.80568894233244,331.8630712876218L345.62401879183955,213.45788912614063L346.4904856913177,334.47422504681856L346.8755820910858,101.80868696886148L348.36783064018704,359.6044061749272L350.7746831387375,234.01426794484624L352.1706575878967,610.7427443775357L352.7001651375778,266.230004782805L353.47035793711393,277.99319784829095L354.14427663670807,302.8372101360395L355.15515468609925,492.4274801659624L357.0806366849396,263.6717346481497L358.13965178430175,358.33634801274206L358.3803370341568,440.55746614433383L360.16140788308405,420.9525846370224L360.69091543276517,103.97363242247417L361.6536564321853,393.98836944093824L361.74993053212734,336.1910281479284L363.29031613119963,241.25208841481395L364.44560533050384,79.44586862741596L365.0232499301559,314.9804622685222L365.1195240300979,297.0723335118854L365.408346329924,269.4851015514606L367.18941717885133,222.06572471382657L368.5372545780395,668.5354743802877L368.6335286779816,101.19598891913188L368.8260768778656,353.49614266399186L369.54813262743073,568.3051941853528L371.52175167624205,508.6722086534916L371.6661628261551,172.83857452358578L374.2174264746185,336.3442719237106L374.3618376245315,223.02903773087812L374.8432081242416,207.4045382886281L375.70967502371974,272.54765646710587L375.75781207369073,324.58934107638373L376.5761419231979,292.3554880631984L376.7205530731109,298.0651761277976L378.35721277212525,339.6004548920877L378.45348687206723,202.12960369192416L378.79044622186433,223.8430778962732L380.5233800208206,457.5711484116366L381.53425807021176,299.3221896813863L382.68954726951597,282.0542721419216L382.93023251937103,393.5111879076137L383.2190548191971,322.4540468168146L384.51875516841426,404.05733826972835L385.48149616783445,289.50663544918336L385.7221814176895,481.379709565671L386.68492241710965,434.82250057016574L388.754815565863,160.26192998158243L389.95824181513825,519.4761277021437L390.05451591508023,337.0468754624788L390.82470871461635,290.9327719812229L390.9209828145584,505.393614028289L391.20980511438444,290.09375923774246L391.3060792143264,133.5430871808082L392.1725461138046,160.8733381658829L393.2796982631378,217.292598647254L393.71293171287687,338.63967111659053L394.627535662326,568.975289086495L395.1570432120071,479.1850016455249L395.25331731194916,135.61120844804927L395.54213961177516,413.3884618778763L396.16792126139825,46.383382695756325L397.03438816087646,184.98865103368703L398.91173310974574,-45.620641004141646L400.01888525907896,169.49410466706436L400.259570508934,20.017962562766684L401.41485970823817,243.00055196600667L401.9443672579193,468.39719774152013L402.47387480760034,345.83178462772827L402.81083415739744,480.25096315856104L403.0996564572235,348.92715868535134L404.2549456565277,360.7952588097386L407.0468945548462,303.58984556292717L408.77982835380243,259.74662576661746L408.8279654037735,292.19305500676387L409.0205136036575,332.5267997804197L409.9832546030777,317.4881733475454L410.0313916530487,170.24770161970335L410.07952870301966,305.28938884055424L410.46462510278775,357.2824724733128L412.5826553015121,301.36017960468916L412.9196146513092,209.06300360623877L413.0640258012222,544.0638277174701L416.57803044910577,382.5368502114338L417.01126389884485,199.57932565600103L417.10753799878694,178.26219365065745L417.30008619867095,566.0938398022031L417.588908498497,261.3183198066869L417.73331964841003,315.84487378159514L418.0702789982071,209.52006128743142L418.4553753979751,360.65474112470025L418.5997865478882,324.79669615365236L419.1774311475403,316.94401845790094L420.4771314967575,252.5808940341295L420.66967969664154,221.1151710779886L421.1991872463226,579.9093871817904L421.7286947960037,-63.571131088684524L425.00201419403226,228.46811693636067L425.6759328936264,185.97365230775443L426.0610292933944,372.5338860898349L426.73494799298857,176.65245022455926L426.7830850429596,444.1934370781481L428.0346483422058,539.3265490586548L428.7085670417999,224.75129466471483L429.91199329107513,424.59295628054133L431.30796774023435,117.64173448851705L431.4523788901474,481.7851267433712L432.7039421893936,265.2119713469578L433.5704090888717,443.49800936350107L433.7629572887558,365.7901924077779L434.966383538031,227.1677110754855L437.4695101365234,414.15288539040756L438.19156588608854,221.49697091422743L438.5766622858566,271.26155635896464L438.6247993358276,167.41002870744944L439.6838144351898,362.34744565101295L440.55028133466794,398.51355552355375L442.47576333350827,382.5322813197629L443.48664138289945,322.9492088426144L444.9788899320007,280.79715631270705L447.5301535804641,205.10424043483164L448.05966113014523,152.95409436332284L448.9261280296234,299.4941733597952L449.40749852933345,179.192332461067L449.45563557930444,231.7294240576913L450.37023952875364,271.25968526828507L451.4773916780868,392.15233402236294L452.39199562753595,246.37592946847542L453.8361071266662,395.09082059818496L454.2693405764053,201.1694814066348L454.4137517263183,216.05608221780173L454.7507110761154,316.58299853864963L455.2320815758255,247.32286139506485L455.3764927257385,242.58108914174002L455.61717797559356,307.5187877130544L456.09854847530363,396.56904631290143L457.2538376746078,306.35581755446856L457.6870711243469,528.5280596790329L458.60167507379606,408.1826666363132L459.4200049233032,350.34297246587425L462.4045020215057,233.12767711026657L464.089298770491,160.8344516492083L464.90762861999815,422.8404300249165L465.3889991197082,151.97076574392045L465.6296843695633,544.4255141497877L466.1591919192444,318.87827089326424L466.4480142190704,103.65552613904231L466.7849735688675,422.06720043001883L467.65144046834564,338.5103104403988L467.89212571820065,491.15935742075334L468.99927786753386,804.3838105558393L469.528785417215,40.51070293338614L469.67319656712795,-104.9084179306032L471.0210339663162,524.7254733643754L471.5024044660263,68.56266419506892L473.18720121501156,332.62626523956715L473.4278864648666,367.95039020344365L476.3642465130981,367.66172552606207L476.4123835630691,-110.37034370561855L477.9527691621414,336.5436399182438L480.02266231089476,228.08538219084298L480.4077587106628,532.373583396533L480.7928551104309,148.3957907019188L480.84099216040187,212.31085059653256L482.47765185941614,311.48868803352804L483.0071594090973,380.21201500802636L483.58480400874936,182.70680779160608L484.3549968082855,182.79888297787693L487.243219806546,697.3287152938121L488.39850900585014,187.14538803350075L489.84262050498046,262.9695705090029L490.0351687048645,394.55217824172945L490.7090874044586,74.65019195394387L491.52741725396567,260.2456385489084L491.81623955379183,290.3517959317765L493.83799565257414,394.79700098017133L494.6081884521103,191.02137829410978L495.1376960017913,234.86037600392496L495.57092945153045,249.15394306237434L495.9560258512985,346.7584684739018L496.91876685071867,336.6034676503257L497.01504095066065,525.6873151516994L497.1594521005737,379.3520617689347L497.25572620051565,300.9985918581857L497.5445485003418,-53.66414269227295L498.50728949976195,33.02156838325618L498.651700649675,284.1274216911485L498.89238589953,309.8431762808345L499.3256193492691,243.96963102725252L502.69521284723965,206.93090012714285L503.65795384665984,322.60498765795194L503.7060908966308,228.63940693175334L503.80236499657286,437.7394983189783L504.476283696167,370.7603027038616L504.668831896051,226.1194402953322L505.10206534579004,286.9246401409796L505.15020239576114,272.11781315260794L505.39088764561615,410.17219806227126L505.63157289547115,374.12830318706557L506.35362864503634,188.65226409911307L507.84587719413753,385.6897706999448L508.42352179378963,471.78443559493604L508.7604811435867,323.5269284018002L509.0011663934417,255.88165575883517L509.6750850930358,184.16473175742829L510.10831854277495,188.230622319273L511.35988184202114,216.90782155396573L511.6968411918182,261.4747189480271L511.74497824178917,335.5920119333803L512.1782116915283,327.6507193471612L514.0074195904266,588.6829211490815L514.3925159901946,403.5863566775583L514.4406530401657,263.0793485624999L514.6332012400496,549.8015688059697L516.173586839122,395.00055583999153L518.4360281877593,269.19305665092503L518.6285763876433,181.85257192698725L519.7357285369767,15.526061096160163L520.6021954364547,325.23764255697085L520.7466065863678,391.61799331723535L521.7574846357589,555.4140557622605L522.28699218544,219.42125170357386L523.4422813847442,328.9600410467515L523.7792407345413,172.69079952552596L524.5975705840485,250.47704132476142L524.6938446839905,62.511318685103845L524.8382558339035,358.4884660388656L525.8491338832947,331.3090659567009L525.9454079832367,376.8622724300389L526.1860932330917,415.8820629969426L526.7156007827729,332.9328824602975L527.2932453824249,404.437473450236L528.111575231932,365.6471169831108L528.9780421314102,215.26671334009822L529.2668644312362,480.6825923278303L529.7482349309463,131.94547394153193L530.6147018304245,251.15149481675584L530.6628388803955,365.04933352140637L531.9625392296127,490.86029630946746L532.3476356293809,247.02495743683622L532.8290061290909,-82.59830336045445L533.3585136787719,352.4243373774501L534.3693917281631,347.8336074613746L535.2358586276413,415.7649846244246L536.7762442267135,344.49300370950306L537.1132035765105,86.82543446592007L539.616330175003,375.4795376930288L539.7126042749451,236.27168132105876L540.1939747746552,356.9652391097641L540.5309341244522,327.70161851995465L541.8306344736694,186.20228456575157L542.8415125230605,-63.39559559161091L543.3228830227707,567.381560862131L544.0930758223068,228.0252365796764L544.1893499222489,176.94899301016787L544.5263092720459,345.46292683626217L546.0666948711182,373.1105923563869L546.8368876706542,261.8002276398199L547.0775729205094,440.506861555297L549.1474660692627,419.0561428848253L549.2918772191757,357.84087229950796L550.2546182185959,253.84536887260424L550.5434405184219,457.1320916714744L550.5915775683928,315.4508767429795L551.8431408676391,188.66375183138717L552.1801002174362,410.675643800762L555.2127343656097,362.7163275207654L555.6459678153489,206.86160252923594L555.9829271651458,131.34366352619614L556.4642976648558,691.2857002950741L557.6677239141312,398.530404389495L558.1972314638122,318.0693767546086L558.7267390134933,403.8334348079185L559.3043836131454,270.176946589301L559.3525206631164,-89.49875611106393L559.4969318130295,265.68569675814837L560.6522210123337,274.1908195621818L560.9410433121596,389.1412133206482L562.0000584115219,358.87287417656L562.481428911232,441.64428222518274L562.866525311,212.59100160281668L565.8028853592315,-48.615729367572044L566.2361188089706,332.22128483651005L566.6693522587098,277.49544123526033L568.354149007695,404.4755200046666L569.7019864068832,655.3074174520132L569.8463975567962,377.7965498213753L571.7718795556366,287.65543422339044L572.9271687549407,202.8004606415658L576.0560770030563,345.0897853903406L578.0778331018387,170.35287680280513L579.8107669007949,232.75658156686097L580.05145215065,475.8589766169806L580.099589200621,34.67406126509525L580.195863300563,461.90253405867827L580.8697820001572,258.26122220259475L581.4474265998092,602.4043912826573L582.5545787491424,327.43133168633284L582.8434010489685,252.3540698368497L583.5654567985335,180.19580330364124L583.8542790983597,296.235473510319L584.3356495980697,122.8969755186964L585.4909387973739,434.48082065979946L586.309268646881,406.1684676721421L587.3682837462433,347.4275539821361L588.8605322953446,275.91841925467304L589.1974916451416,202.71076183719254L589.7269991948227,220.18615522896155L590.6897401942429,254.07660380135354L591.0266995440398,444.5485798723337L591.2673847938948,249.4688164407596L593.2891408926772,377.6554268904215L595.0220746916335,570.1841416943694L596.3699120908218,223.4536475570469L596.4661861907639,533.97895289403L596.5143232407348,125.80945174203475L596.6105973406769,185.22559167520225L597.3326530902419,276.28596591932904L597.6214753900681,264.36182242244274L597.8621606399231,557.92712526626L599.2581350890822,131.74858191191277L599.9320537886764,290.16381823118746L600.4615613383576,311.80367884204855L600.9429318380676,198.38122015672997L601.1354800379515,482.9647272848483L601.1836170879226,227.85979454227393L602.5314544871109,313.5632894919376L602.9646879368499,278.4535153747752L604.0718400861831,480.7325632486596L604.6976217358063,789.76309358509L606.1898702849076,211.54196309694368L606.6231037346465,561.189803672931L607.4414335841537,288.2214029083459L607.6821188340087,314.4635094706523L608.1153522837478,335.69468514879384L608.5004486835159,307.5160731711262L608.8855450832839,424.78833972561563L609.7038749327911,150.49977412468766L611.1479864319214,317.66330154609807L611.6293569316314,424.375002186232L613.4104277805587,415.6633858523836L613.8436612302978,300.0968008848845L613.8917982802689,480.5987870427168L614.1806205800949,147.2366023301483L614.9508133796311,214.6288867022445L615.2877727294281,201.6663007215769L616.6356101286162,333.3981773175152L616.6837471785873,339.11201933039644L617.1169806283264,314.10506136233886L617.3576658781814,225.58796796276548L617.8871734278625,398.29285653872677L618.3204068776016,293.4376311110668L618.9943255771957,84.66828689288769L620.8235334760941,302.6439116026746L620.967944626007,111.10859405471552L621.4011780757461,368.03903784583014L622.6046043250213,396.44980721944034L622.7971525249054,182.12609548282703L623.2303859746444,343.20375413818726L623.9043046742386,503.781142106742L624.1931269740646,428.4744785663032L624.2894010740066,364.24251939492405L625.9260607730209,379.9292681437461L626.2148830728469,399.2519123573259L626.503705372673,125.63511742233877L626.599979472615,195.72951907119133L626.6481165225861,153.21216542950927L627.1294870222961,423.22287880662606L627.3701722721511,356.341920815956L628.0440909717453,259.7624980922249L628.4773244214844,194.22427400722273L629.2475172210204,410.8862945384468L630.4509434702957,715.3365998353463L631.3655474197449,268.4261334896821L631.798780869484,425.934110101306L632.6652477689621,374.3431170911728L633.9649481181792,231.64795285196647L635.0721002675124,493.9129026933558L635.1683743674545,75.49685117157355L635.2165114174255,355.9101983417539L637.671500965947,-11.838804225762829L638.056597365715,794.6880605200926L638.201008515628,368.7655561955043L638.6342419653671,350.47338697526925L640.4153128142945,378.2419977464366L641.9075613633956,-183.5342260173195L642.8703023628158,273.71839908642005L643.784906312265,360.7355956876552L645.2771548613663,237.1494944138948L645.6622512611343,269.60414581855713L645.7585253610763,276.66429596770314L647.3951850600906,275.169652682333L648.2135149095977,365.085155864328L648.8874336091919,509.7250335063037L649.1762559090179,160.35783848863593L650.5240933082061,287.12808709942715L650.6685044581192,423.6088706753902L650.7166415080901,355.2984717605024L651.0054638079163,150.36179404079172L651.1017379078583,380.1098120527269L651.9200677573654,276.0069360566137L652.3051641571334,557.6350065576783L652.7383976068726,413.50222299495175L653.4604533564376,207.81110397788976L654.2306461559738,209.03043955893725L656.1079911048431,181.34006180162038L656.6856357044952,202.42462600507355L656.7819098044372,278.3974716027486L657.2632803041473,452.11321447271337L657.7927878538284,480.66685358379897L658.1297472036255,112.67538166270435L658.4667065534225,302.49201200488875L658.5629806533645,379.9793403993805L659.3813105028717,162.77123431117496L660.2959144523207,653.2018925566385L662.028848251277,272.25472882234885L663.3285486004943,337.1263905902488L663.6173709003205,151.24260179446233L664.0506043500594,1.565388162883096L665.4947158491898,652.5765564420672L667.516471947972,448.5025873969066L668.8643093471603,190.9984443765615L669.1049945970153,288.89494288583L670.4046949462326,712.3970102945503L670.7897913460006,358.5962895724239L671.0304765958556,200.07455798386343L671.1267506957978,349.3524341186232L671.1748877457687,2.79932481108051L672.1376287451889,264.47624135892374L672.378313995044,135.2310195826107L673.0522326946381,199.69712790032827L673.5336031943481,388.58007961565056L673.7742884442031,215.0026619607896L674.1112477940003,207.49691594911843L675.0258517434494,66.93696543278799L675.6034963431015,506.3810802397411L680.2727901902892,671.0672914068552L680.9948459398544,112.91450156128604L681.5243534895354,230.98141657435752L681.7169016894195,223.51107993302472L682.4870944889557,364.09893798106316L683.1128761385788,320.4164305426083L684.075617137999,428.5148216873542L684.5088505877379,80.91484831862994L684.8939469875061,400.77887083421615L686.6268807864623,360.7685537306561L687.5896217858825,711.9873511688556L687.7340329357955,404.8878673213816L688.5042257353316,210.44874469331566L689.2744185348678,-14.588741491486815L692.6921490828095,79.48792088030171L693.1253825325484,255.84864328600565L693.1735195825195,258.0658908141199L694.6176310816497,209.92428484420816L695.5322350310989,365.97783862692785L695.676646181012,283.1274704073455L696.7356612803741,411.2116205580398L698.8536914790984,273.7569122858966L699.8645695284896,327.91976716784603L700.1533918283156,327.2169305353136L700.2496659282577,393.15543948215554L701.2605439776489,295.0009009323316L702.3195590770111,487.0810815650983L703.7155335261702,384.7645842555669L705.9298378248367,156.1474335636692L707.277675224025,291.6524930502117L710.1177611723144,371.6917933544348L710.8879539718505,227.68924629405748L712.3802025209518,536.5972377264105L712.7652989207198,262.3839145426516L713.776176970111,152.11315378633665L714.9796032193863,381.4057636792004L715.2202884692413,375.6513781415753L715.8460701188644,288.78707929237595L716.4237147185165,174.96191381409903L716.7125370183425,169.64570836604727L718.7342931171249,345.54817652395116L718.782430167096,219.25172004851115L719.023115416951,153.02304766853948L719.7451711665161,169.3969064880005L722.5371200648345,660.9012168094903L723.3554499143416,453.2604635552967L724.655150263559,333.9516660151109L724.7032873135299,97.40602894933932L725.088383713298,345.88345053580895L725.6660283129502,327.3343205083817L725.8104394628631,147.62374800680422L726.2436729126022,210.10722099367305L726.9657286621673,138.53473245196844L727.1582768620514,219.5545516655665L727.9766067115585,129.16809187942283L728.8430736110366,223.01813925347108L729.7095405105148,364.28508900953216L730.4315962600799,587.3697873644953L730.91296675979,481.56674312815994L731.057377909703,331.51509940434937L731.6350225093552,423.3663530876466L731.6831595593261,62.84656794072686L731.8757077592102,168.54311624429891L733.2235451583985,510.68075143272057L734.4751084576446,81.87120694208619L736.0636311066878,333.7741905873158L736.7856868562529,246.64916680048128L738.5186206552094,122.33151195153584L738.7593059050644,468.3487894793069L741.2624325035569,629.7139593170829L742.225173502977,366.05574327885057L744.5838889515563,548.6358848218532L745.8354522508026,256.7732827439745L745.9798634007157,121.28205760806878L748.001619499498,176.9328152837492L748.7718122990341,239.78574434318693L750.4566090480193,231.8543797880918L751.1786647975845,348.87840510026365L751.5637611973525,348.46057795063854L751.8525834971787,466.8425668508981L753.4411061462218,268.5864847921208L754.259435995729,712.5837785094938L754.403847145642,154.8799239489179L754.548258295555,280.1504525899036L755.1740399451782,543.1995399719472L756.4737402943954,121.79876049358774L757.3402071938735,166.8398884033314L757.6771665436706,328.49104883012063L758.0141258934676,162.00355172790563L759.0731409928298,168.880957349675L760.084019042221,182.57685437207206L760.7098006918442,318.30314795859647L762.3945974408294,217.9918301880038L763.5017495901626,223.32459357949156L763.6461607400756,416.73240853428155L764.4644905895829,445.8028041166014L764.7533128894088,245.8837767675284L766.8232060381622,320.0102682702685L766.8713430881331,288.6847437965234L767.7859470375823,445.72347584899455L767.9303581874954,554.116940063087L768.3154545872635,177.32144177351262L768.3635916372344,67.19964691638381L768.4117286872055,458.5016962455702L768.7005509870315,487.6235391393405L769.6632919864517,317.29963118700493L769.7595660863936,344.2974974396794L770.6260329858718,146.28561510254477L773.0328854844223,303.21507474970514L773.7068041840164,224.87046624430502L773.9956264838424,309.1933102018181L775.6322861828567,443.91217667024966L777.605905231668,632.9047826142876L778.9537426308564,305.01027558669904L780.2534429800735,580.4075585937996L780.4941282299285,265.45837335391343L780.7829505297547,337.30268564087686L781.8901026790878,580.4884181024486L783.093528928363,364.34034589612565L783.6711735280151,261.5463595864281L783.7193105779861,290.5905717882089L784.0081328778122,287.4642516905554L784.4413663275512,307.4921811297914L785.2596961770583,336.70986255028913L785.8373407767104,288.65988630807203L786.1261630765365,282.69911055410404L787.0889040759566,223.3987835445454L787.2814522758407,553.082073366233L788.4367414751449,173.4694715111848L788.5330155750869,175.10398321711705L788.966249024826,452.1073584371035L791.3731015233764,237.85667577216827L792.5283907226807,334.75263569072L793.6355428720138,216.27711656089033L795.2722025710281,220.60273886030768L795.320339620999,423.0110924888968L796.4756288203033,323.09191622097745L796.5719029202453,425.3106826099246L796.6200399702163,64.86366826561994L798.0641514693465,138.64185092935924L799.2675777186219,283.2715874379707L799.5082629684769,8.504463118733554L800.230318718042,417.8479539022143L800.519141017868,259.2488582522453L801.9632525169982,226.56189772829205L802.0113895669692,409.7662003150591L802.3964859667374,189.51973320903255L802.5890341666213,244.30023327693468L802.8778564664474,227.53031594018523L803.6480492659836,197.55376439691105L805.7179424147369,360.97932695839603L806.2955870143891,352.822516738932L806.82509456407,375.9706081530073L807.3064650637801,393.180686811588L807.9322467134032,425.1592036535476L808.7505765629104,299.6043107058905L809.0393988627366,321.7438015320963L809.2319470626205,94.10637318447397L809.3282211625625,427.9303563904276L811.4462513612868,405.1989251468625L811.7832107110839,265.3505093561025L811.831347761055,384.8454862962971L812.601540560591,180.35326639127655L812.7459517105041,267.77753063491656L814.2863373095764,256.35844440886603L814.3344743595474,256.18772208667247L814.3826114095184,269.19358840918557L815.5379006088225,152.27772699748263L816.2118193084167,179.9864213658285L818.6668088569381,483.3314154765411L819.2444534565902,391.5050013362599L822.2770876047637,246.39678018297798L822.7584581044739,128.24041826166848L824.298843703546,476.02638260000157L824.4913919034302,442.81976465119715L825.4541329028503,210.0569886741127L826.6094221021546,326.61122023731957L826.7056962020965,255.24686127988718L827.5240260516036,185.66084715323433L829.305096900531,295.98123680586764L829.8827415001831,398.8937139126976L830.7492083996613,428.80790268512567L830.9898936495163,133.27671521979795L831.0861677494582,470.0532965345495L831.5675382491684,226.10579760599035L832.4340051486465,264.8214533082298L833.2041979481827,390.77773305022816L833.5411572979797,106.02073194251852L834.3594871474869,407.2748003209286L834.6483094473128,137.16222079328915L834.9852687971099,477.4331239838778L838.5474104949645,625.5757737377908L839.0287809946747,242.81225099517968L839.4138773944427,395.1832518856967L839.8952478941527,224.52874138733924L840.2322072439499,367.6832265878786L840.7135777436599,458.4552637553222L840.7617147936309,399.03707746048144L840.8098518436019,205.7487997021665L841.435633493225,363.15043995828853L842.3502374426743,550.0377661097147L846.1049273404129,389.210204784644L846.6825719400649,263.0892069904226L847.2120794897461,107.59542788038732L848.7524650888183,206.83092077902617L850.2928506878906,241.1324398408744L851.7850992369919,143.162248586537L853.5661700859192,265.9345968365249L854.7214592852233,186.30009628893978L855.1546927349624,313.7461486655686L855.4435150347884,235.24705009333695L856.1655707843536,302.3744881518233L856.9839006338607,392.9291406183872L857.6578193334549,491.24154836136586L857.8022304833679,325.5297164163958L858.716834432817,465.75932612309055L859.6314383822662,302.53491260864223L860.0165347820342,287.7211502765448L863.4824023799468,145.84093777336926L865.0709250289901,264.2628382937189L865.4560214287582,397.14974132794254L865.7448437285842,282.0579366164302L866.9001329278884,353.71016511074345L866.9482699778595,189.90686548719728L867.2852293276566,271.4129218230604L868.7774778767578,487.899761516985L869.0663001765838,369.61406019258004L870.077178225975,569.6962187138486L870.6548228256271,400.5084955604568L96.70733339175567,299.48576520076716" fill="none"></path></g></g></g></g></g></g><g transform="translate(30, 378)" clip-path="url(#clip_1)"><clipPath id="clip_1"><rect width="962" height="21"></rect></clipPath><g><g><line x1="0" y1="0" x2="0" y2="5" style="visibility: inherit;" fill="rgb(0, 0, 0)" stroke="rgb(204, 204, 204)" stroke-width="1px"></line><line x1="96.2740999420166" y1="0" x2="96.2740999420166" y2="5" style="visibility: inherit;" fill="rgb(0, 0, 0)" stroke="rgb(204, 204, 204)" stroke-width="1px"></line><line x1="192.5481998840332" y1="0" x2="192.5481998840332" y2="5" style="visibility: inherit;" fill="rgb(0, 0, 0)" stroke="rgb(204, 204, 204)" stroke-width="1px"></line><line x1="288.8222998260498" y1="0" x2="288.8222998260498" y2="5" style="visibility: inherit;" fill="rgb(0, 0, 0)" stroke="rgb(204, 204, 204)" stroke-width="1px"></line><line x1="385.0963997680664" y1="0" x2="385.0963997680664" y2="5" style="visibility: inherit;" fill="rgb(0, 0, 0)" stroke="rgb(204, 204, 204)" stroke-width="1px"></line><line x1="481.370499710083" y1="0" x2="481.370499710083" y2="5" style="visibility: inherit;" fill="rgb(0, 0, 0)" stroke="rgb(204, 204, 204)" stroke-width="1px"></line><line x1="577.6445996520996" y1="0" x2="577.6445996520996" y2="5" style="visibility: inherit;" fill="rgb(0, 0, 0)" stroke="rgb(204, 204, 204)" stroke-width="1px"></line><line x1="673.9186995941161" y1="0" x2="673.9186995941161" y2="5" style="visibility: inherit;" fill="rgb(0, 0, 0)" stroke="rgb(204, 204, 204)" stroke-width="1px"></line><line x1="770.1927995361328" y1="0" x2="770.1927995361328" y2="5" style="visibility: inherit;" fill="rgb(0, 0, 0)" stroke="rgb(204, 204, 204)" stroke-width="1px"></line><line x1="866.4668994781493" y1="0" x2="866.4668994781493" y2="5" style="visibility: inherit;" fill="rgb(0, 0, 0)" stroke="rgb(204, 204, 204)" stroke-width="1px"></line><line x1="962.740999420166" y1="0" x2="962.740999420166" y2="5" style="visibility: inherit;" fill="rgb(0, 0, 0)" stroke="rgb(204, 204, 204)" stroke-width="1px"></line></g><g transform="translate(0, 8)"><text style="text-anchor: middle; visibility: hidden; font-family: &quot;Helvetica Neue&quot;, sans-serif; font-size: 12px; font-weight: 200;" x="0" y="0" dx="0em" dy="0.95em" fill="rgb(50, 49, 63)" stroke="none" stroke-width="1px">-2k</text><text style="text-anchor: middle; visibility: inherit; font-family: &quot;Helvetica Neue&quot;, sans-serif; font-size: 12px; font-weight: 200;" x="96.2740999420166" y="0" dx="0em" dy="0.95em" fill="rgb(50, 49, 63)" stroke="none" stroke-width="1px">0</text><text style="text-anchor: middle; visibility: inherit; font-family: &quot;Helvetica Neue&quot;, sans-serif; font-size: 12px; font-weight: 200;" x="192.5481998840332" y="0" dx="0em" dy="0.95em" fill="rgb(50, 49, 63)" stroke="none" stroke-width="1px">2k</text><text style="text-anchor: middle; visibility: inherit; font-family: &quot;Helvetica Neue&quot;, sans-serif; font-size: 12px; font-weight: 200;" x="288.8222998260498" y="0" dx="0em" dy="0.95em" fill="rgb(50, 49, 63)" stroke="none" stroke-width="1px">4k</text><text style="text-anchor: middle; visibility: inherit; font-family: &quot;Helvetica Neue&quot;, sans-serif; font-size: 12px; font-weight: 200;" x="385.0963997680664" y="0" dx="0em" dy="0.95em" fill="rgb(50, 49, 63)" stroke="none" stroke-width="1px">6k</text><text style="text-anchor: middle; visibility: inherit; font-family: &quot;Helvetica Neue&quot;, sans-serif; font-size: 12px; font-weight: 200;" x="481.370499710083" y="0" dx="0em" dy="0.95em" fill="rgb(50, 49, 63)" stroke="none" stroke-width="1px">8k</text><text style="text-anchor: middle; visibility: inherit; font-family: &quot;Helvetica Neue&quot;, sans-serif; font-size: 12px; font-weight: 200;" x="577.6445996520996" y="0" dx="0em" dy="0.95em" fill="rgb(50, 49, 63)" stroke="none" stroke-width="1px">10k</text><text style="text-anchor: middle; visibility: inherit; font-family: &quot;Helvetica Neue&quot;, sans-serif; font-size: 12px; font-weight: 200;" x="673.9186995941161" y="0" dx="0em" dy="0.95em" fill="rgb(50, 49, 63)" stroke="none" stroke-width="1px">12k</text><text style="text-anchor: middle; visibility: inherit; font-family: &quot;Helvetica Neue&quot;, sans-serif; font-size: 12px; font-weight: 200;" x="770.1927995361328" y="0" dx="0em" dy="0.95em" fill="rgb(50, 49, 63)" stroke="none" stroke-width="1px">14k</text><text style="text-anchor: middle; visibility: inherit; font-family: &quot;Helvetica Neue&quot;, sans-serif; font-size: 12px; font-weight: 200;" x="866.4668994781493" y="0" dx="0em" dy="0.95em" fill="rgb(50, 49, 63)" stroke="none" stroke-width="1px">16k</text><text style="text-anchor: middle; visibility: hidden; font-family: &quot;Helvetica Neue&quot;, sans-serif; font-size: 12px; font-weight: 200;" x="962.740999420166" y="0" dx="0em" dy="0.95em" fill="rgb(50, 49, 63)" stroke="none" stroke-width="1px">18k</text></g><line x1="0" y1="0" x2="962.740999420166" y2="0" fill="rgb(0, 0, 0)" stroke="rgb(204, 204, 204)" stroke-width="1px"></line></g></g></g></g></svg>